<svg width="130" height="111" viewBox="0 0 130 111" fill="none" xmlns="http://www.w3.org/2000/svg">
<path d="M4.47213 78.5L65 48.2361L125.528 78.5L65 108.764L4.47213 78.5Z" fill="#B9BECD" stroke="#483F60" stroke-width="4"/>
<path d="M108 72C108 73.7581 107.117 75.6354 105.089 77.5533C103.057 79.4752 100.009 81.2981 96.077 82.871C88.2236 86.0123 77.2371 88 65 88C52.7629 88 41.7764 86.0123 33.923 82.871C29.9907 81.2981 26.9427 79.4752 24.9105 77.5533C22.8826 75.6354 22 73.7581 22 72C22 70.2419 22.8826 68.3646 24.9105 66.4467C26.9427 64.5248 29.9907 62.7019 33.923 61.129C41.7764 57.9877 52.7629 56 65 56C77.2371 56 88.2236 57.9877 96.077 61.129C100.009 62.7019 103.057 64.5248 105.089 66.4467C107.117 68.3646 108 70.2419 108 72Z" fill="#D5D9E6" stroke="#483F60" stroke-width="4"/>
<rect x="20" y="18" width="90" height="54" fill="#D5D9E6"/>
<path d="M108 54C108 55.7581 107.117 57.6354 105.089 59.5533C103.057 61.4752 100.009 63.2981 96.077 64.871C88.2236 68.0123 77.2371 70 65 70C52.7629 70 41.7764 68.0123 33.923 64.871C29.9907 63.2981 26.9427 61.4752 24.9105 59.5533C22.8826 57.6354 22 55.7581 22 54C22 52.2419 22.8826 50.3646 24.9105 48.4467C26.9427 46.5248 29.9907 44.7019 33.923 43.129C41.7764 39.9877 52.7629 38 65 38C77.2371 38 88.2236 39.9877 96.077 43.129C100.009 44.7019 103.057 46.5248 105.089 48.4467C107.117 50.3646 108 52.2419 108 54Z" fill="#B9BECD" stroke="#483F60" stroke-width="4"/>
<rect x="20" y="18" width="90" height="36" fill="#B9BECD"/>
<path d="M108 36C108 37.7581 107.117 39.6354 105.089 41.5533C103.057 43.4752 100.009 45.2981 96.077 46.871C88.2236 50.0123 77.2371 52 65 52C52.7629 52 41.7764 50.0123 33.923 46.871C29.9907 45.2981 26.9427 43.4752 24.9105 41.5533C22.8826 39.6354 22 37.7581 22 36C22 34.2419 22.8826 32.3646 24.9105 30.4467C26.9427 28.5248 29.9907 26.7019 33.923 25.129C41.7764 21.9877 52.7629 20 65 20C77.2371 20 88.2236 21.9877 96.077 25.129C100.009 26.7019 103.057 28.5248 105.089 30.4467C107.117 32.3646 108 34.2419 108 36Z" fill="#D5D9E6" stroke="#483F60" stroke-width="4"/>
<rect x="20" y="18" width="90" height="18" fill="#D5D9E6"/>
<path d="M108 18C108 19.7581 107.117 21.6354 105.089 23.5533C103.057 25.4752 100.009 27.2981 96.077 28.871C88.2236 32.0123 77.2371 34 65 34C52.7629 34 41.7764 32.0123 33.923 28.871C29.9907 27.2981 26.9427 25.4752 24.9105 23.5533C22.8826 21.6354 22 19.7581 22 18C22 16.2419 22.8826 14.3646 24.9105 12.4467C26.9427 10.5248 29.9907 8.70193 33.923 7.12903C41.7764 3.98767 52.7629 2 65 2C77.2371 2 88.2236 3.98767 96.077 7.12903C100.009 8.70193 103.057 10.5248 105.089 12.4467C107.117 14.3646 108 16.2419 108 18Z" fill="#D5D9E6" stroke="#483F60" stroke-width="4"/>
<line x1="22" y1="18" x2="22" y2="72" stroke="#483F60" stroke-width="4"/>
<line x1="108" y1="18" x2="108" y2="72" stroke="#483F60" stroke-width="4"/>
</svg>
